<svg xmlns="http://www.w3.org/2000/svg" width="300" height="200" viewBox="0 0 300 200"><rect width="100%" height="100%" fill="#222"/><path fill="#444" d="M85.755 82.655h5.68v34.7h-3.31q-.77 0-1.28-.25-.52-.25-1-.85l-18.12-23.14q.15 1.58.15 2.93v21.31h-5.69v-34.7h3.38q.41 0 .71.03.3.04.53.15.23.1.44.31.22.2.48.54l18.19 23.23q-.07-.84-.12-1.66-.04-.81-.04-1.51zm46.51 17.35q0 3.81-1.26 7.07-1.26 3.25-3.57 5.62-2.3 2.38-5.54 3.71t-7.2 1.33q-3.94 0-7.18-1.33t-5.55-3.71q-2.32-2.37-3.59-5.62-1.27-3.26-1.27-7.07 0-3.82 1.27-7.07t3.59-5.63q2.31-2.37 5.55-3.71 3.24-1.33 7.18-1.33 2.64 0 4.97.61 2.33.62 4.27 1.73 1.94 1.12 3.49 2.71 1.55 1.6 2.63 3.57t1.64 4.27q.57 2.3.57 4.85m-6.6 0q0-2.86-.77-5.13-.77-2.26-2.18-3.85-1.42-1.58-3.45-2.42t-4.57-.84-4.57.84-3.46 2.42q-1.43 1.59-2.19 3.85-.77 2.27-.77 5.13 0 2.85.77 5.12.76 2.27 2.19 3.84t3.46 2.41 4.57.84 4.57-.84 3.45-2.41q1.41-1.57 2.18-3.84t.77-5.12m30.43-17.35v34.7h-6.48v-34.7zm40.51 0h4.87v34.7h-5.68v-22.42q0-1.34.14-2.9l-10.49 19.7q-.74 1.42-2.28 1.42h-.91q-1.54 0-2.28-1.42l-10.61-19.77q.07.79.12 1.56t.05 1.41v22.42h-5.69v-34.7h4.87q.44 0 .75.02t.56.12.46.31q.2.22.39.58l10.4 19.27q.4.77.75 1.58.35.82.69 1.68.33-.88.69-1.71t.77-1.6l10.25-19.22q.19-.36.41-.58.21-.21.46-.31.26-.1.57-.12t.74-.02m29.69 17.3h11.52v14.04q-2.64 1.94-5.63 2.84t-6.39.9q-4.25 0-7.7-1.32-3.44-1.32-5.88-3.67-2.43-2.35-3.75-5.61-1.32-3.27-1.32-7.13 0-3.91 1.27-7.18 1.27-3.26 3.61-5.61 2.34-2.36 5.68-3.65 3.33-1.3 7.49-1.3 2.11 0 3.94.34 1.84.33 3.41.92t2.87 1.43 2.38 1.85l-1.85 2.93q-.43.69-1.13.85-.7.15-1.51-.35-.79-.46-1.59-.91-.79-.46-1.76-.79-.97-.34-2.18-.56-1.22-.21-2.8-.21-2.57 0-4.64.86-2.08.87-3.54 2.47-1.47 1.61-2.26 3.87-.79 2.25-.79 5.04 0 2.97.85 5.31t2.4 3.96 3.73 2.48q2.19.85 4.87.85 1.92 0 3.44-.41 1.51-.41 2.95-1.1v-6.29h-4.37q-.62 0-.97-.35t-.35-.85z"/></svg>